<?xml version="1.0" encoding="UTF-8" standalone="no"?>
<!DOCTYPE svg PUBLIC "-//W3C//DTD SVG 1.1//EN"
 "http://www.w3.org/Graphics/SVG/1.1/DTD/svg11.dtd">
<!-- Generated by graphviz version 2.44.1 (20200629.0846)
 -->
<!-- Pages: 1 -->
<svg width="181pt" height="211pt"
 viewBox="0.00 0.00 181.00 211.00" xmlns="http://www.w3.org/2000/svg" xmlns:xlink="http://www.w3.org/1999/xlink">
<g id="graph0" class="graph" transform="scale(1 1) rotate(0) translate(4 207)">
<polygon fill="white" stroke="transparent" points="-4,4 -4,-207 177,-207 177,4 -4,4"/>
<text text-anchor="middle" x="86.5" y="-7.8" font-family="Times,serif" font-size="14.00">Linear Function as a Process</text>
<!-- x -->
<g id="node1" class="node">
<title>x</title>
<ellipse fill="#b2dfee" stroke="#b2dfee" cx="86.5" cy="-185" rx="29.5" ry="18"/>
<text text-anchor="middle" x="86.5" y="-181.3" font-family="Times,serif" font-size="14.00">Input</text>
</g>
<!-- f -->
<g id="node2" class="node">
<title>f</title>
<polygon fill="orange" stroke="orange" points="129.5,-131 43.5,-131 43.5,-95 129.5,-95 129.5,-131"/>
<text text-anchor="middle" x="86.5" y="-109.3" font-family="Times,serif" font-size="14.00">input * input</text>
</g>
<!-- x&#45;&gt;f -->
<g id="edge1" class="edge">
<title>x&#45;&gt;f</title>
<path fill="none" stroke="black" d="M86.5,-166.7C86.5,-158.98 86.5,-149.71 86.5,-141.11"/>
<polygon fill="black" stroke="black" points="90,-141.1 86.5,-131.1 83,-141.1 90,-141.1"/>
</g>
<!-- y -->
<g id="node3" class="node">
<title>y</title>
<ellipse fill="#b2dfee" stroke="#b2dfee" cx="86.5" cy="-41" rx="35.19" ry="18"/>
<text text-anchor="middle" x="86.5" y="-37.3" font-family="Times,serif" font-size="14.00">Output</text>
</g>
<!-- f&#45;&gt;y -->
<g id="edge2" class="edge">
<title>f&#45;&gt;y</title>
<path fill="none" stroke="black" d="M86.5,-94.7C86.5,-86.98 86.5,-77.71 86.5,-69.11"/>
<polygon fill="black" stroke="black" points="90,-69.1 86.5,-59.1 83,-69.1 90,-69.1"/>
</g>
</g>
</svg>
